<svg xmlns="http://www.w3.org/2000/svg" viewBox="0 0 5559.47 1115.00" fill="#F5F2EA" aria-label="Gardn">
  <g id="gardn-lockup">
    <g id="gardn-mark" transform="translate(50.00 -107.50) scale(0.64732)">
      <path fill-rule="evenodd" clip-rule="evenodd" d="M556.5 0 C249.2 0 0 249.2 0 556.5 c0 247.8 200.8 537.7 414.4 736.8 c52.8 49.2 95.4 84.5 142.1 117.3 c46.7-32.8 89.3-68.1 142.1-117.3 c213.6-199.1 414.4-489 414.4-736.8 C1113 249.2 863.8 0 556.5 0 z M683 286 c10 0 15 5 15 15 v641 c0 10-5 15-15 15 c-100 0-261-118-261-308 c0-100 100-181 261-181 z M557 314 c-66 7-126 60-126 138 c0 87 75 174 165 191 V438 c0-10-5-15-15-15 c-10 0-15 5-15 15 v167 c-22-22-46-66-46-130 c0-78 46-134 124-138 v228 c0 10 5 15 15 15 c10 0 15-5 15-15 V314 z"></path>
    </g>
    <g id="gardn-wordmark" transform="translate(1190.47 750.00)">
      <path d="M397 12L397 12Q289 12 206.500-34.500Q124-81 77-162.500Q30-244 30-350Q30-456 77-537.500Q124-619 206.500-665.500Q289-712 397-712L397-712Q464-712 518.500-692.500Q573-673 614-639Q655-605 682-561L682-561L549-481Q534-505 509.500-524Q485-543 456-553.500Q427-564 397-564L397-564Q338-564 292.500-537Q247-510 221-461.500Q195-413 195-350Q195-287 220-238.500Q245-190 292-162Q339-134 401-134L401-134Q448-134 484-152Q520-170 541-202L541-202Q558-228 561-260L561-260L402-260L402-384L715-384L715-289L715-289Q712-196 674-131L674-131Q633-60 562-24Q491 12 397 12Z"></path>
      <path d="M1639 0L1469 0L1419-133L1143-133L1093 0L923 0L1195-700L1367-700L1639 0ZM1366-275L1281-502L1196-275L1366-275Z"></path>
      <path d="M2056 0L1895 0L1895-700L2170-700Q2246-700 2305-670.500Q2364-641 2397.500-588.500Q2431-536 2431-468Q2431-400 2397-347Q2363-294 2304-265L2304-265Q2302-264 2301-263L2301-263L2459 0L2275 0L2141-235L2056-235L2056 0ZM2056-553L2056-383L2165-383Q2193-383 2215-394Q2237-405 2249.500-424.500Q2262-444 2262-468L2262-468Q2262-505 2234.500-529Q2207-553 2162-553L2162-553L2056-553Z"></path>
      <path d="M2958 0L2729 0L2729-700L2958-700Q3069-700 3154.500-655Q3240-610 3288-531.500Q3336-453 3336-350L3336-350Q3336-248 3288-169Q3240-90 3154.500-45Q3069 0 2958 0L2958 0ZM2890-548L2890-152L2958-152Q3004-152 3043-166.500Q3082-181 3111-207.500Q3140-234 3156-270.500Q3172-307 3172-350L3172-350Q3172-393 3156-429.500Q3140-466 3111-492.500Q3082-519 3043-533.500Q3004-548 2958-548L2958-548L2890-548Z"></path>
      <path d="M3775 0L3614 0L3614-700L3783-700L4090-273L4090-700L4251-700L4251 0L4090 0L3775-439L3775 0Z"></path>
    </g>
  </g>
</svg>