<svg viewBox="0 0 2117 2117" fill="none" xmlns="http://www.w3.org/2000/svg">
<g transform="translate(502 274.5)">
<path d="M536.028 0.670776C562.622 -1.13885 590.88 0.98595 617.319 3.7948C700.191 12.5979 772.916 37.2026 844.596 79.6034C971.266 155.795 1062.31 279.219 1097.57 422.575C1119.71 511.271 1118.63 615.859 1090.38 702.925C1067.39 773.813 1024.4 840.629 984.82 903.314L896.221 1042.03L698.927 1348.83C669.227 1394.35 639.756 1440.01 610.526 1485.83C595.969 1508.43 579.937 1532.04 566.049 1554.93L557.741 1568C530.496 1526.7 503.519 1485.2 476.813 1443.55L133.337 912.003C60.5903 797.459 4.71424 712.421 0.283173 571.988C-5.60671 385.33 80.6515 210.104 233.693 102.025C324.336 38.011 426.118 6.10491 536.028 0.670776ZM818.271 93.5546C728.91 139.371 643.493 199.814 574.046 258.781C504.606 317.742 451.098 375.258 425.578 415.231C369.049 503.777 342.287 576.75 337.545 651.368C332.803 725.974 350.079 802.174 381.525 897.157L382.491 897.09C405.236 772.869 431.973 690.051 471.126 618.239C509.777 547.347 560.544 487.157 631.578 408.431C535.197 586.877 468.93 733.807 449.103 897.512C429.141 1062.34 456.265 1244.13 547.03 1492.17L547.992 1491.91C519.492 1330.16 500.325 1202.43 497.864 1107.28C496.634 1059.7 499.581 1020.3 507.613 988.875C515.644 957.452 528.751 934.035 547.816 918.387H547.817C630.248 850.689 687.16 795.409 730.216 737.909C773.276 680.404 802.462 620.698 829.471 544.166L829.481 544.138L829.487 544.108C866.009 379.012 855.996 281.934 818.99 93.9032L818.862 93.2518L818.271 93.5546Z" fill="#FAF8F3"/>
</g>
</svg>
